<svg width="24" height="24" viewBox="0 0 24 24" fill="none" xmlns="http://www.w3.org/2000/svg">
<path d="M19.15 6.22407V11.6956C19.15 12.0956 19.0755 12.4722 18.9264 12.8252C18.7774 13.1782 18.5734 13.488 18.3146 13.7547C18.0557 14.0214 17.7537 14.2332 17.4085 14.3901C17.0634 14.547 16.6868 14.6255 16.2789 14.6255H10.5368C10.0583 14.6255 9.60331 14.7196 9.17187 14.9079C8.74042 15.0961 8.35604 15.355 8.01873 15.6845C7.68142 16.0139 7.41863 16.3905 7.23037 16.8141C7.0421 17.2377 6.94404 17.6966 6.9362 18.1908V20.8147H4.97117C4.52403 20.8147 4.13181 20.7363 3.7945 20.5794C3.45719 20.4225 3.16694 20.2107 2.92377 19.944C2.68059 19.6773 2.47271 19.3674 2.30013 19.0144C2.12756 18.6614 1.99812 18.2888 1.91183 17.8966C1.79417 17.4181 1.69611 16.9357 1.61767 16.4493C1.53922 15.9629 1.5 15.4687 1.5 14.9667C1.5 14.4725 1.53922 13.9822 1.61767 13.4959C1.69611 13.0095 1.79417 12.531 1.91183 12.0603C2.02166 11.621 2.18247 11.2249 2.39427 10.8719C2.60607 10.5189 2.86886 10.213 3.18263 9.9541C3.49641 9.69523 3.84157 9.4952 4.2181 9.354C4.59463 9.2128 5.02216 9.1422 5.50067 9.1422H13.4079V8.41267H7.66573V6.22407C7.66573 5.70633 7.72064 5.27489 7.83047 4.92973C7.94029 4.58458 8.11679 4.30218 8.35997 4.08253C8.60314 3.86289 8.90123 3.69031 9.25423 3.5648C9.60723 3.43929 10.0348 3.32947 10.5368 3.23533C10.9839 3.14904 11.4389 3.09021 11.9017 3.05883C12.3646 3.02746 12.8235 3.00784 13.2784 3C13.7805 3 14.2825 3.01569 14.7846 3.04707C15.2866 3.07844 15.7847 3.1412 16.2789 3.23533C16.6555 3.30593 17.0163 3.4236 17.3615 3.58833C17.7066 3.75307 18.0086 3.96094 18.2675 4.21197C18.5264 4.46299 18.7382 4.76108 18.9029 5.10623C19.0676 5.45139 19.15 5.824 19.15 6.22407ZM10.172 6.9536C10.3211 6.9536 10.4623 6.92615 10.5956 6.87123C10.729 6.81632 10.8427 6.73788 10.9369 6.6359C11.031 6.53392 11.1094 6.41626 11.1722 6.2829C11.235 6.14954 11.2624 6.00834 11.2546 5.8593C11.2546 5.71026 11.2271 5.57298 11.1722 5.44747C11.1173 5.32196 11.0388 5.20429 10.9369 5.09447C10.8349 4.98464 10.7211 4.9062 10.5956 4.85913C10.4701 4.81207 10.3289 4.78069 10.172 4.765C10.023 4.765 9.88179 4.79246 9.74843 4.84737C9.61508 4.90228 9.50133 4.98072 9.4072 5.0827C9.31307 5.18468 9.23462 5.30234 9.17187 5.4357C9.10911 5.56906 9.08166 5.71026 9.0895 5.8593C9.0895 6.00834 9.11696 6.14954 9.17187 6.2829C9.22678 6.41626 9.3013 6.53 9.39543 6.62413C9.48957 6.71827 9.60723 6.79671 9.74843 6.85947C9.88963 6.92222 10.0308 6.9536 10.172 6.9536Z" fill="#3776AB"/>
<mask id="path-2-outside-1_246_2" maskUnits="userSpaceOnUse" x="7.40234" y="13" width="16" height="8" fill="black">
<rect fill="white" x="7.40234" y="13" width="16" height="8"/>
<path d="M10.3626 19H8.68359V14.6364H10.3455C10.7944 14.6364 11.1822 14.7237 11.5089 14.8984C11.837 15.0717 12.0898 15.3217 12.2674 15.6484C12.4464 15.9737 12.5359 16.3636 12.5359 16.8182C12.5359 17.2727 12.4471 17.6634 12.2695 17.9901C12.092 18.3153 11.8406 18.5653 11.5153 18.7401C11.19 18.9134 10.8058 19 10.3626 19ZM9.86825 17.9943H10.32C10.5359 17.9943 10.7198 17.9595 10.8718 17.8899C11.0252 17.8203 11.1417 17.7003 11.2212 17.5298C11.3022 17.3594 11.3427 17.1222 11.3427 16.8182C11.3427 16.5142 11.3015 16.277 11.2191 16.1065C11.1381 15.9361 11.0188 15.8161 10.8612 15.7464C10.7049 15.6768 10.5131 15.642 10.2859 15.642H9.86825V17.9943ZM15.4363 16C15.4249 15.858 15.3716 15.7472 15.2765 15.6676C15.1827 15.5881 15.04 15.5483 14.8482 15.5483C14.726 15.5483 14.6259 15.5632 14.5478 15.593C14.4711 15.6214 14.4142 15.6605 14.3773 15.7102C14.3404 15.7599 14.3212 15.8168 14.3198 15.8807C14.3169 15.9332 14.3262 15.9808 14.3475 16.0234C14.3702 16.0646 14.4057 16.1023 14.454 16.1364C14.5023 16.169 14.5641 16.1989 14.6394 16.2259C14.7147 16.2528 14.8042 16.277 14.9078 16.2983L15.2658 16.375C15.5073 16.4261 15.714 16.4936 15.8858 16.5774C16.0577 16.6612 16.1983 16.7599 16.3077 16.8736C16.4171 16.9858 16.4973 17.1122 16.5485 17.2528C16.601 17.3935 16.628 17.5469 16.6294 17.7131C16.628 18 16.5563 18.2429 16.4142 18.4418C16.2722 18.6406 16.0691 18.7919 15.8049 18.8956C15.5421 18.9993 15.226 19.0511 14.8567 19.0511C14.4775 19.0511 14.1465 18.995 13.8638 18.8828C13.5826 18.7706 13.3638 18.598 13.2076 18.3651C13.0527 18.1307 12.9746 17.831 12.9732 17.4659H14.0982C14.1053 17.5994 14.1387 17.7116 14.1983 17.8026C14.258 17.8935 14.3418 17.9624 14.4498 18.0092C14.5591 18.0561 14.6891 18.0795 14.8397 18.0795C14.9661 18.0795 15.0719 18.0639 15.1571 18.0327C15.2424 18.0014 15.307 17.9581 15.351 17.9027C15.3951 17.8473 15.4178 17.7841 15.4192 17.7131C15.4178 17.6463 15.3958 17.5881 15.3532 17.5384C15.312 17.4872 15.2438 17.4418 15.1486 17.402C15.0534 17.3608 14.9249 17.3224 14.763 17.2869L14.3283 17.1932C13.9419 17.1094 13.6373 16.9695 13.4142 16.7734C13.1926 16.576 13.0826 16.3068 13.084 15.9659C13.0826 15.6889 13.1564 15.4467 13.3056 15.2393C13.4561 15.0305 13.6642 14.8679 13.9299 14.7514C14.1969 14.6349 14.503 14.5767 14.8482 14.5767C15.2005 14.5767 15.5051 14.6357 15.7623 14.7536C16.0194 14.8714 16.2175 15.0376 16.3567 15.2521C16.4973 15.4652 16.5684 15.7145 16.5698 16H15.4363ZM18.0437 19H16.7653L18.2056 14.6364H19.8249L21.2653 19H19.9869L19.0323 15.8381H18.9982L18.0437 19ZM17.805 17.2784H20.2085V18.1648H17.805V17.2784Z"/>
</mask>
<path d="M10.3626 19H8.68359V14.6364H10.3455C10.7944 14.6364 11.1822 14.7237 11.5089 14.8984C11.837 15.0717 12.0898 15.3217 12.2674 15.6484C12.4464 15.9737 12.5359 16.3636 12.5359 16.8182C12.5359 17.2727 12.4471 17.6634 12.2695 17.9901C12.092 18.3153 11.8406 18.5653 11.5153 18.7401C11.19 18.9134 10.8058 19 10.3626 19ZM9.86825 17.9943H10.32C10.5359 17.9943 10.7198 17.9595 10.8718 17.8899C11.0252 17.8203 11.1417 17.7003 11.2212 17.5298C11.3022 17.3594 11.3427 17.1222 11.3427 16.8182C11.3427 16.5142 11.3015 16.277 11.2191 16.1065C11.1381 15.9361 11.0188 15.8161 10.8612 15.7464C10.7049 15.6768 10.5131 15.642 10.2859 15.642H9.86825V17.9943ZM15.4363 16C15.4249 15.858 15.3716 15.7472 15.2765 15.6676C15.1827 15.5881 15.04 15.5483 14.8482 15.5483C14.726 15.5483 14.6259 15.5632 14.5478 15.593C14.4711 15.6214 14.4142 15.6605 14.3773 15.7102C14.3404 15.7599 14.3212 15.8168 14.3198 15.8807C14.3169 15.9332 14.3262 15.9808 14.3475 16.0234C14.3702 16.0646 14.4057 16.1023 14.454 16.1364C14.5023 16.169 14.5641 16.1989 14.6394 16.2259C14.7147 16.2528 14.8042 16.277 14.9078 16.2983L15.2658 16.375C15.5073 16.4261 15.714 16.4936 15.8858 16.5774C16.0577 16.6612 16.1983 16.7599 16.3077 16.8736C16.4171 16.9858 16.4973 17.1122 16.5485 17.2528C16.601 17.3935 16.628 17.5469 16.6294 17.7131C16.628 18 16.5563 18.2429 16.4142 18.4418C16.2722 18.6406 16.0691 18.7919 15.8049 18.8956C15.5421 18.9993 15.226 19.0511 14.8567 19.0511C14.4775 19.0511 14.1465 18.995 13.8638 18.8828C13.5826 18.7706 13.3638 18.598 13.2076 18.3651C13.0527 18.1307 12.9746 17.831 12.9732 17.4659H14.0982C14.1053 17.5994 14.1387 17.7116 14.1983 17.8026C14.258 17.8935 14.3418 17.9624 14.4498 18.0092C14.5591 18.0561 14.6891 18.0795 14.8397 18.0795C14.9661 18.0795 15.0719 18.0639 15.1571 18.0327C15.2424 18.0014 15.307 17.9581 15.351 17.9027C15.3951 17.8473 15.4178 17.7841 15.4192 17.7131C15.4178 17.6463 15.3958 17.5881 15.3532 17.5384C15.312 17.4872 15.2438 17.4418 15.1486 17.402C15.0534 17.3608 14.9249 17.3224 14.763 17.2869L14.3283 17.1932C13.9419 17.1094 13.6373 16.9695 13.4142 16.7734C13.1926 16.576 13.0826 16.3068 13.084 15.9659C13.0826 15.6889 13.1564 15.4467 13.3056 15.2393C13.4561 15.0305 13.6642 14.8679 13.9299 14.7514C14.1969 14.6349 14.503 14.5767 14.8482 14.5767C15.2005 14.5767 15.5051 14.6357 15.7623 14.7536C16.0194 14.8714 16.2175 15.0376 16.3567 15.2521C16.4973 15.4652 16.5684 15.7145 16.5698 16H15.4363ZM18.0437 19H16.7653L18.2056 14.6364H19.8249L21.2653 19H19.9869L19.0323 15.8381H18.9982L18.0437 19ZM17.805 17.2784H20.2085V18.1648H17.805V17.2784Z" fill="#647ED3"/>
<path d="M8.68359 19H7.68359V20H8.68359V19ZM8.68359 14.6364V13.6364H7.68359V14.6364H8.68359ZM11.5089 14.8984L11.0373 15.7803L11.0419 15.7827L11.5089 14.8984ZM12.2674 15.6484L11.3888 16.126L11.3913 16.1305L12.2674 15.6484ZM12.2695 17.9901L13.1473 18.4692L13.1482 18.4676L12.2695 17.9901ZM11.5153 18.7401L11.9855 19.6226L11.9885 19.621L11.5153 18.7401ZM9.86825 17.9943H8.86825V18.9943H9.86825V17.9943ZM10.8718 17.8899L10.4586 16.9793L10.4554 16.9807L10.8718 17.8899ZM11.2212 17.5298L10.3179 17.1008L10.3151 17.1069L11.2212 17.5298ZM11.2191 16.1065L10.3158 16.5356L10.3188 16.5417L11.2191 16.1065ZM10.8612 15.7464L10.4542 16.6599L10.4573 16.6613L10.8612 15.7464ZM9.86825 15.642V14.642H8.86825V15.642H9.86825ZM10.3626 18H8.68359V20H10.3626V18ZM9.68359 19V14.6364H7.68359V19H9.68359ZM8.68359 15.6364H10.3455V13.6364H8.68359V15.6364ZM10.3455 15.6364C10.6644 15.6364 10.8833 15.6979 11.0373 15.7803L11.9805 14.0166C11.481 13.7495 10.9244 13.6364 10.3455 13.6364V15.6364ZM11.0419 15.7827C11.1953 15.8637 11.3051 15.9721 11.3888 16.126L13.146 15.1709C12.8746 14.6714 12.4787 14.2797 11.9759 14.0142L11.0419 15.7827ZM11.3913 16.1305C11.4727 16.2784 11.5359 16.4947 11.5359 16.8182H13.5359C13.5359 16.2325 13.4201 15.669 13.1435 15.1664L11.3913 16.1305ZM11.5359 16.8182C11.5359 17.1427 11.4729 17.3616 11.3909 17.5125L13.1482 18.4676C13.4212 17.9651 13.5359 17.4028 13.5359 16.8182H11.5359ZM11.3918 17.5109C11.3069 17.6665 11.1957 17.7766 11.0421 17.8591L11.9885 19.621C12.4854 19.3541 12.8771 18.9642 13.1473 18.4692L11.3918 17.5109ZM11.0451 17.8575C10.8911 17.9395 10.6748 18 10.3626 18V20C10.9367 20 11.4889 19.8872 11.9855 19.6226L11.0451 17.8575ZM9.86825 18.9943H10.32V16.9943H9.86825V18.9943ZM10.32 18.9943C10.6393 18.9943 10.9733 18.9433 11.2882 18.7991L10.4554 16.9807C10.4663 16.9757 10.4324 16.9943 10.32 16.9943V18.9943ZM11.285 18.8006C11.6813 18.6208 11.9596 18.3124 12.1274 17.9527L10.3151 17.1069C10.3166 17.1036 10.3281 17.0806 10.3566 17.0513C10.3862 17.0208 10.4222 16.9958 10.4586 16.9793L11.285 18.8006ZM12.1245 17.9589C12.2964 17.5969 12.3427 17.1902 12.3427 16.8182H10.3427C10.3427 16.9277 10.3352 17.0051 10.3266 17.0558C10.3177 17.1076 10.3101 17.1174 10.318 17.1008L12.1245 17.9589ZM12.3427 16.8182C12.3427 16.4446 12.2954 16.0354 12.1195 15.6714L10.3188 16.5417C10.3103 16.5242 10.3177 16.5328 10.3265 16.5834C10.3352 16.6331 10.3427 16.7094 10.3427 16.8182H12.3427ZM12.1224 15.6775C11.9491 15.3126 11.6634 15.0075 11.265 14.8316L10.4573 16.6613C10.4243 16.6467 10.3895 16.6237 10.3597 16.5937C10.3309 16.5647 10.3184 16.541 10.3158 16.5356L12.1224 15.6775ZM11.2681 14.833C10.949 14.6909 10.6096 14.642 10.2859 14.642V16.642C10.4167 16.642 10.4608 16.6628 10.4542 16.6599L11.2681 14.833ZM10.2859 14.642H9.86825V16.642H10.2859V14.642ZM8.86825 15.642V17.9943H10.8683V15.642H8.86825ZM15.4363 16L14.4394 16.0797L14.5131 17H15.4363V16ZM15.2765 15.6676L14.6295 16.4301L14.6351 16.4349L15.2765 15.6676ZM14.5478 15.593L14.8951 16.5308L14.9045 16.5273L14.5478 15.593ZM14.3773 15.7102L13.5746 15.1139L13.5746 15.1139L14.3773 15.7102ZM14.3198 15.8807L15.3183 15.9347L15.3192 15.9188L15.3195 15.9029L14.3198 15.8807ZM14.3475 16.0234L13.4531 16.4707L13.4621 16.4888L13.4719 16.5065L14.3475 16.0234ZM14.454 16.1364L13.8773 16.9533L13.8855 16.9591L13.8937 16.9646L14.454 16.1364ZM14.9078 16.2983L15.1174 15.3205L15.1091 15.3188L14.9078 16.2983ZM15.2658 16.375L15.0563 17.3528L15.0586 17.3533L15.2658 16.375ZM16.3077 16.8736L15.5872 17.5671L15.5916 17.5716L16.3077 16.8736ZM16.5485 17.2528L15.6086 17.5946L15.6118 17.6029L16.5485 17.2528ZM16.6294 17.7131L17.6295 17.718L17.6294 17.7045L16.6294 17.7131ZM16.4142 18.4418L17.228 19.023L17.228 19.023L16.4142 18.4418ZM15.8049 18.8956L15.4395 17.9647L15.4378 17.9654L15.8049 18.8956ZM13.8638 18.8828L13.4932 19.8116L13.4948 19.8123L13.8638 18.8828ZM13.2076 18.3651L12.3732 18.9163L12.3771 18.9221L13.2076 18.3651ZM12.9732 17.4659V16.4659H11.9693L11.9732 17.4698L12.9732 17.4659ZM14.0982 17.4659L15.0968 17.4128L15.0464 16.4659H14.0982V17.4659ZM14.1983 17.8026L13.3623 18.3512L13.3623 18.3512L14.1983 17.8026ZM14.4498 18.0092L14.0515 18.9265L14.0558 18.9284L14.4498 18.0092ZM15.1571 18.0327L15.5014 18.9715L15.5014 18.9715L15.1571 18.0327ZM15.351 17.9027L16.1339 18.5249L16.1339 18.5249L15.351 17.9027ZM15.4192 17.7131L16.419 17.7331L16.4194 17.7124L16.419 17.6918L15.4192 17.7131ZM15.3532 17.5384L14.5744 18.1657L14.584 18.1776L14.5939 18.1891L15.3532 17.5384ZM15.1486 17.402L14.7514 18.3198L14.763 18.3247L15.1486 17.402ZM14.763 17.2869L14.9772 16.3101L14.9738 16.3094L14.763 17.2869ZM14.3283 17.1932L14.1163 18.1705L14.1175 18.1707L14.3283 17.1932ZM13.4142 16.7734L12.749 17.5201L12.754 17.5245L13.4142 16.7734ZM13.084 15.9659L14.084 15.9701L14.084 15.9608L13.084 15.9659ZM13.3056 15.2393L12.4945 14.6545L12.4937 14.6555L13.3056 15.2393ZM13.9299 14.7514L13.5301 13.8348L13.5283 13.8356L13.9299 14.7514ZM15.7623 14.7536L15.3454 15.6625L15.3454 15.6625L15.7623 14.7536ZM16.3567 15.2521L15.5179 15.7965L15.5221 15.803L16.3567 15.2521ZM16.5698 16V17H17.5748L17.5698 15.995L16.5698 16ZM16.4331 15.9203C16.4038 15.5539 16.2501 15.1781 15.9178 14.9003L14.6351 16.4349C14.5743 16.384 14.5223 16.318 14.4865 16.2437C14.452 16.1719 14.442 16.1122 14.4394 16.0797L16.4331 15.9203ZM15.9234 14.9051C15.5718 14.6067 15.1509 14.5483 14.8482 14.5483V16.5483C14.8784 16.5483 14.868 16.5518 14.8307 16.5414C14.7909 16.5304 14.7131 16.501 14.6295 16.4301L15.9234 14.9051ZM14.8482 14.5483C14.6553 14.5483 14.4227 14.5704 14.1911 14.6588L14.9045 16.5273C14.8635 16.5429 14.8359 16.5475 14.8288 16.5486C14.8213 16.5497 14.8267 16.5483 14.8482 16.5483V14.5483ZM14.2004 14.6553C13.9992 14.7298 13.7587 14.8661 13.5746 15.1139L15.1801 16.3066C15.0698 16.455 14.9429 16.5131 14.8951 16.5308L14.2004 14.6553ZM13.5746 15.1139C13.4099 15.3356 13.3259 15.5945 13.32 15.8585L15.3195 15.9029C15.3165 16.039 15.2709 16.1843 15.1801 16.3066L13.5746 15.1139ZM13.3212 15.8267C13.31 16.0339 13.3462 16.257 13.4531 16.4707L15.2419 15.5762C15.3061 15.7047 15.3238 15.8325 15.3183 15.9347L13.3212 15.8267ZM13.4719 16.5065C13.584 16.7097 13.7363 16.8538 13.8773 16.9533L15.0307 15.3194C15.0751 15.3508 15.1564 15.4196 15.2231 15.5404L13.4719 16.5065ZM13.8937 16.9646C14.0315 17.0579 14.1748 17.1216 14.3019 17.1672L14.9768 15.2845C14.9671 15.281 14.9659 15.28 14.9713 15.2827C14.9766 15.2852 14.9922 15.2931 15.0143 15.3081L13.8937 16.9646ZM14.3019 17.1672C14.4332 17.2143 14.5705 17.2499 14.7066 17.2778L15.1091 15.3188C15.0378 15.3041 14.9961 15.2914 14.9768 15.2845L14.3019 17.1672ZM14.6983 17.2761L15.0563 17.3528L15.4753 15.3972L15.1174 15.3205L14.6983 17.2761ZM15.0586 17.3533C15.242 17.3921 15.3668 17.4369 15.4476 17.4763L16.3241 15.6786C16.0611 15.5503 15.7726 15.4601 15.473 15.3967L15.0586 17.3533ZM15.4476 17.4763C15.5357 17.5193 15.5744 17.5537 15.5872 17.567L17.0282 16.1801C16.8223 15.9662 16.5797 15.8032 16.3241 15.6786L15.4476 17.4763ZM15.5916 17.5716C15.6068 17.5871 15.6083 17.5935 15.6087 17.5946L17.4883 16.9111C17.3864 16.6309 17.2274 16.3845 17.0238 16.1756L15.5916 17.5716ZM15.6118 17.6029C15.6193 17.6232 15.6289 17.6596 15.6295 17.7216L17.6294 17.7045C17.6271 17.4341 17.5827 17.1637 17.4852 16.9028L15.6118 17.6029ZM15.6295 17.7081C15.6289 17.8253 15.6025 17.8577 15.6005 17.8605L17.228 19.023C17.51 18.6281 17.6272 18.1747 17.6294 17.718L15.6295 17.7081ZM15.6005 17.8605C15.5882 17.8778 15.5533 17.9201 15.4395 17.9647L16.1702 19.8265C16.5848 19.6637 16.9562 19.4035 17.228 19.023L15.6005 17.8605ZM15.4378 17.9654C15.3217 18.0112 15.137 18.0511 14.8567 18.0511V20.0511C15.315 20.0511 15.7624 19.9874 16.1719 19.8258L15.4378 17.9654ZM14.8567 18.0511C14.5737 18.0511 14.373 18.009 14.2328 17.9534L13.4948 19.8123C13.92 19.981 14.3812 20.0511 14.8567 20.0511V18.0511ZM14.2344 17.954C14.1248 17.9103 14.073 17.8601 14.0381 17.808L12.3771 18.9221C12.6547 19.336 13.0403 19.6309 13.4932 19.8116L14.2344 17.954ZM14.0419 17.8139C14.0223 17.7841 13.9741 17.69 13.9732 17.462L11.9732 17.4698C11.9752 17.972 12.0832 18.4773 12.3732 18.9163L14.0419 17.8139ZM12.9732 18.4659H14.0982V16.4659H12.9732V18.4659ZM13.0996 17.519C13.114 17.7889 13.1856 18.0819 13.3623 18.3512L15.0344 17.2539C15.0918 17.3413 15.0966 17.41 15.0968 17.4128L13.0996 17.519ZM13.3623 18.3512C13.5377 18.6185 13.7802 18.8087 14.0515 18.9265L14.848 17.092C14.8721 17.1024 14.9052 17.1206 14.9409 17.1499C14.9771 17.1797 15.009 17.2152 15.0344 17.2539L13.3623 18.3512ZM14.0558 18.9284C14.318 19.0407 14.5883 19.0795 14.8397 19.0795V17.0795C14.8158 17.0795 14.8057 17.0777 14.8067 17.0778C14.8081 17.0781 14.8218 17.0807 14.8437 17.0901L14.0558 18.9284ZM14.8397 19.0795C15.0409 19.0795 15.2719 19.0557 15.5014 18.9715L14.8129 17.0938C14.8446 17.0822 14.8647 17.079 14.8678 17.0786C14.871 17.0781 14.8625 17.0795 14.8397 17.0795V19.0795ZM15.5014 18.9715C15.7111 18.8947 15.9474 18.7595 16.1339 18.5249L14.5682 17.2805C14.6666 17.1567 14.7736 17.1082 14.8129 17.0938L15.5014 18.9715ZM16.1339 18.5249C16.3148 18.2973 16.4132 18.0223 16.419 17.7331L14.4194 17.6931C14.4207 17.6263 14.4326 17.5518 14.4601 17.4754C14.4876 17.399 14.526 17.3335 14.5682 17.2805L16.1339 18.5249ZM16.419 17.6918C16.4127 17.3987 16.3088 17.1167 16.1124 16.8876L14.5939 18.1891C14.5436 18.1305 14.4984 18.0579 14.4662 17.9729C14.4342 17.8883 14.421 17.8063 14.4194 17.7343L16.419 17.6918ZM16.1319 16.911C15.9432 16.6767 15.7037 16.5501 15.5342 16.4793L14.763 18.3247C14.7659 18.3259 14.7473 18.3185 14.7164 18.298C14.6859 18.2776 14.6312 18.2362 14.5744 18.1657L16.1319 16.911ZM15.5458 16.4843C15.3675 16.4071 15.1694 16.3523 14.9772 16.3101L14.5488 18.2637C14.6804 18.2926 14.7394 18.3145 14.7514 18.3197L15.5458 16.4843ZM14.9738 16.3094L14.5391 16.2157L14.1175 18.1707L14.5521 18.2645L14.9738 16.3094ZM14.5403 16.2159C14.267 16.1566 14.1343 16.075 14.0744 16.0223L12.754 17.5245C13.1402 17.864 13.6169 18.0621 14.1163 18.1705L14.5403 16.2159ZM14.0795 16.0268C14.0781 16.0256 14.0804 16.0275 14.084 16.0325C14.0877 16.0377 14.09 16.0424 14.0911 16.0449C14.0935 16.0508 14.0837 16.0316 14.084 15.9701L12.084 15.9617C12.0816 16.5421 12.2805 17.1026 12.749 17.5201L14.0795 16.0268ZM14.084 15.9608C14.0835 15.8763 14.1022 15.8444 14.1174 15.8232L12.4937 14.6555C12.2107 15.0491 12.0816 15.5016 12.084 15.971L14.084 15.9608ZM14.1167 15.8242C14.15 15.778 14.2083 15.7213 14.3315 15.6672L13.5283 13.8356C13.1202 14.0145 12.7623 14.2831 12.4945 14.6545L14.1167 15.8242ZM14.3297 15.668C14.4495 15.6158 14.6156 15.5767 14.8482 15.5767V13.5767C14.3905 13.5767 13.9443 13.6541 13.5301 13.8348L14.3297 15.668ZM14.8482 15.5767C15.0909 15.5767 15.2471 15.6174 15.3454 15.6625L16.1791 13.8446C15.7632 13.6539 15.31 13.5767 14.8482 13.5767V15.5767ZM15.3454 15.6625C15.4491 15.7101 15.4927 15.7577 15.5179 15.7965L17.1955 14.7077C16.9423 14.3175 16.5896 14.0328 16.1791 13.8446L15.3454 15.6625ZM15.5221 15.803C15.5434 15.8352 15.5692 15.8898 15.5698 16.005L17.5698 15.995C17.5675 15.5391 17.4513 15.0952 17.1913 14.7013L15.5221 15.803ZM16.5698 15H15.4363V17H16.5698V15ZM18.0437 19V20H18.7864L19.001 19.289L18.0437 19ZM16.7653 19L15.8157 18.6866L15.3821 20H16.7653V19ZM18.2056 14.6364V13.6364H17.4826L17.256 14.3229L18.2056 14.6364ZM19.8249 14.6364L20.7745 14.3229L20.5479 13.6364H19.8249V14.6364ZM21.2653 19V20H22.6484L22.2149 18.6866L21.2653 19ZM19.9869 19L19.0295 19.289L19.2442 20H19.9869V19ZM19.0323 15.8381L19.9896 15.5491L19.775 14.8381H19.0323V15.8381ZM18.9982 15.8381V14.8381H18.2555L18.0409 15.5491L18.9982 15.8381ZM17.805 17.2784V16.2784H16.805V17.2784H17.805ZM20.2085 17.2784H21.2085V16.2784H20.2085V17.2784ZM20.2085 18.1648V19.1648H21.2085V18.1648H20.2085ZM17.805 18.1648H16.805V19.1648H17.805V18.1648ZM18.0437 18H16.7653V20H18.0437V18ZM17.7149 19.3134L19.1552 14.9498L17.256 14.3229L15.8157 18.6866L17.7149 19.3134ZM18.2056 15.6364H19.8249V13.6364H18.2056V15.6364ZM18.8753 14.9498L20.3157 19.3134L22.2149 18.6866L20.7745 14.3229L18.8753 14.9498ZM21.2653 18H19.9869V20H21.2653V18ZM20.9442 18.711L19.9896 15.5491L18.075 16.1271L19.0295 19.289L20.9442 18.711ZM19.0323 14.8381H18.9982V16.8381H19.0323V14.8381ZM18.0409 15.5491L17.0864 18.711L19.001 19.289L19.9556 16.1271L18.0409 15.5491ZM17.805 18.2784H20.2085V16.2784H17.805V18.2784ZM19.2085 17.2784V18.1648H21.2085V17.2784H19.2085ZM20.2085 17.1648H17.805V19.1648H20.2085V17.1648ZM18.805 18.1648V17.2784H16.805V18.1648H18.805Z" fill="black" mask="url(#path-2-outside-1_246_2)"/>
</svg>
