<svg width="96" height="88" viewBox="0 0 96 88" fill="none" xmlns="http://www.w3.org/2000/svg">
    <path fill-rule="evenodd" clip-rule="evenodd"
        d="M40.9688 81.602L47.9167 87.927L54.8646 81.602C79.5417 59.2249 95.8334 44.4187 95.8334 26.3541C95.8334 11.5479 84.2375 0 69.4792 0C61.1417 0 53.1396 3.88125 47.9167 9.96665C42.6938 3.88125 34.6917 0 26.3542 0C11.5958 0 0 11.5479 0 26.3541C0 44.4187 16.2917 59.2249 40.9688 81.602ZM48.6861 45.9863C48.47 45.9863 48.2908 45.7966 48.2908 45.5647V43.0351C48.2908 42.8032 48.47 42.6135 48.6861 42.6135H58.4356C58.6516 42.6135 58.8308 42.8032 58.8308 43.0351V45.5647C58.8308 45.7966 58.6516 45.9863 58.4356 45.9863H48.6861ZM48.138 37.4015L38.0196 45.8862C37.7455 46.118 37.3292 45.9231 37.3292 45.5647V42.2604C37.33 42.199 37.3441 42.1385 37.3705 42.083C37.3969 42.0275 37.4349 41.9784 37.482 41.9389L43.2685 37.08L37.482 32.2211C37.3819 32.142 37.3292 32.0261 37.3292 31.8996V28.5953C37.3288 28.5151 37.3513 28.4365 37.3942 28.3688C37.4372 28.301 37.4986 28.247 37.5713 28.2132C37.644 28.1793 37.7249 28.1671 37.8043 28.1778C37.8838 28.1886 37.9585 28.2219 38.0196 28.2738L48.138 36.7533C48.3382 36.9219 48.3382 37.2328 48.138 37.4015ZM28.6864 16H67.4736C68.4064 16 69.16 16.7536 69.16 17.6864V56.4736C69.16 57.4064 68.4064 58.16 67.4736 58.16H28.6864C27.7536 58.16 27 57.4064 27 56.4736V17.6864C27 16.7536 27.7536 16 28.6864 16ZM30.7944 54.3656H65.3656V19.7944H30.7944V54.3656Z"
        fill="#ef2e58" />
</svg>